HIERARCHY
ROOT hip
{
	OFFSET 0.000000 0.000000 0.000000
	CHANNELS 6 Xposition Yposition Zposition Xrotation Zrotation Yrotation 
	JOINT abdomen
	{
		OFFSET 0.000000 3.422050 0.000000
		CHANNELS 3 Xrotation Zrotation Yrotation 
		JOINT chest
		{
			OFFSET 0.000000 8.486693 -0.684411
			CHANNELS 3 Xrotation Zrotation Yrotation 
			JOINT neck
			{
				OFFSET 0.000000 10.266162 -0.273764
				CHANNELS 3 Xrotation Zrotation Yrotation 
				JOINT head
				{
					OFFSET 0.000000 3.148285 0.000000
					CHANNELS 3 Xrotation Zrotation Yrotation 
					End Site
					{
						OFFSET 0.000000 3.148289 0.000000
					}
				}
			}
			JOINT lCollar
			{
				OFFSET 3.422053 6.707223 -0.821293
				CHANNELS 3 Yrotation Zrotation Xrotation 
				JOINT lShldr
				{
					OFFSET 3.285171 0.000000 0.000000
					CHANNELS 3 Zrotation Yrotation Xrotation 
					JOINT lForeArm
					{
						OFFSET 10.129278 0.000000 0.000000
						CHANNELS 3 Yrotation Zrotation Xrotation 
						JOINT lHand
						{
							OFFSET 8.486692 0.000000 0.000000
							CHANNELS 3 Zrotation Yrotation Xrotation 
							End Site
							{
								OFFSET 4.106464 0.000000 0.000000
							}
						}
					}
				}
			}
			JOINT rCollar
			{
				OFFSET -3.558935 6.707223 -0.821293
				CHANNELS 3 Yrotation Zrotation Xrotation 
				JOINT rShldr
				{
					OFFSET -3.148289 0.000000 0.000000
					CHANNELS 3 Zrotation Yrotation Xrotation 
					JOINT rForeArm
					{
						OFFSET -10.266159 0.000000 0.000000
						CHANNELS 3 Yrotation Zrotation Xrotation 
						JOINT rHand
						{
							OFFSET -8.349810 0.000000 0.000000
							CHANNELS 3 Zrotation Yrotation Xrotation 
							End Site
							{
								OFFSET -4.106464 0.000000 0.000000
							}
						}
					}
				}
			}
		}
	}
	JOINT lThigh
	{
		OFFSET 5.338403 -1.642589 1.368821
		CHANNELS 3 Xrotation Zrotation Yrotation 
		JOINT lShin
		{
			OFFSET -2.053232 -20.121670 0.000000
			CHANNELS 3 Xrotation Zrotation Yrotation 
			JOINT lFoot
			{
				OFFSET 0.000000 -19.300380 -1.231939
				CHANNELS 3 Xrotation Yrotation Zrotation 
				End Site
				{
					OFFSET 0.000000 -2.463878 4.653993
				}
			}
		}
	}
	JOINT rThigh
	{
		OFFSET -5.338403 -1.642589 1.368821
		CHANNELS 3 Xrotation Zrotation Yrotation 
		JOINT rShin
		{
			OFFSET 2.053232 -20.121670 0.000000
			CHANNELS 3 Xrotation Zrotation Yrotation 
			JOINT rFoot
			{
				OFFSET 0.000000 -19.300380 -1.231939
				CHANNELS 3 Xrotation Yrotation Zrotation 
				End Site
				{
					OFFSET 0.000000 -2.463878 4.653993
				}
			}
		}
	}
}
MOTION
Frames: 13
Frame Time: 0.049989
0.000000 43.528500 0.000000 0.000000 0.000000 0.000000 0.000000 0.000000 0.000000 0.000000 0.000000 0.000000 0.000000 0.000000 0.000000 0.000000 0.000000 0.000000 0.000000 0.000000 0.000000 0.000000 0.000000 0.000000 0.000000 0.000000 0.000000 0.000000 0.000000 0.000000 0.000000 0.000000 0.000000 0.000000 0.000000 0.000000 0.000000 0.000000 0.000000 0.000000 0.000000 0.000000 0.000000 0.000000 0.000000 0.000000 0.000000 0.000000 0.000000 0.000000 0.000000 0.000000 0.000000 0.000000 0.000000 0.000000 0.000000 0.000000 0.000000 0.000000 
-22.002388 23.995182 16.998161 -90.001877 -0.011127 0.011128 1.256685 -0.480253 -0.696001 19.755430 -0.636630 -1.369288 -14.014612 0.000000 0.000000 -17.014692 0.000000 0.000000 -6.768828 18.105295 -36.033226 -51.019455 -56.008598 -41.991837 -111.320900 8.961136 -10.055514 -20.000887 -12.003766 -19.006704 6.757761 -18.127789 -36.034607 50.997852 51.998947 -37.003071 111.144211 -9.279498 -10.120818 11.851444 9.241464 -20.627701 -35.072353 14.692152 0.473750 84.007111 3.857255 -0.548852 37.650230 2.470174 -2.799105 -35.078232 -14.781937 -0.511249 84.006477 -3.903561 0.610764 38.216091 -2.463059 2.802497 
-22.002388 24.027889 16.993488 -90.001877 -0.011127 0.011128 0.979081 -0.480203 -0.696021 19.755430 -0.636630 -1.369288 -14.347892 0.000000 0.000000 -16.073019 0.000000 0.000000 -7.081073 17.926287 -35.806282 -50.934601 -56.398373 -42.132690 -111.320900 8.961136 -10.055514 -20.222736 -12.227357 -18.859488 7.061284 -17.963192 -35.813747 50.902687 52.114639 -37.488949 111.144211 -9.279498 -10.120817 12.053580 9.471417 -20.494389 -35.000980 14.168466 -0.056677 84.007103 3.857255 -0.548852 37.835476 2.646880 -3.546646 -34.999050 -14.476906 -0.212613 84.006470 -3.903561 0.610764 38.397194 -2.567379 3.237121 
-22.002388 24.060596 16.988817 -90.001884 -0.011127 0.011128 0.701452 -0.480153 -0.696042 19.755430 -0.636630 -1.369288 -14.681213 0.000000 0.000000 -15.130325 0.000000 0.000000 -7.392305 17.746069 -35.580540 -50.847103 -56.788097 -42.276073 -111.320908 8.961138 -10.055514 -20.445393 -12.450418 -18.711241 7.363897 -17.797447 -35.593952 50.805676 52.229885 -37.976517 111.144211 -9.279498 -10.120818 12.256421 9.700932 -20.360142 -34.924725 13.645072 -0.586952 84.007111 3.857255 -0.548852 38.023197 2.821285 -4.295424 -34.918320 -14.172201 0.086126 84.006477 -3.903561 0.610764 38.579147 -2.670350 3.672228 
-22.002388 24.093304 16.984144 -90.001877 -0.011127 0.011128 0.423799 -0.480104 -0.696062 19.755430 -0.636630 -1.369288 -15.014576 0.000000 0.000000 -14.186732 0.000000 0.000000 -7.702524 17.564665 -35.356018 -50.756870 -57.177773 -42.422108 -111.320900 8.961135 -10.055513 -20.668852 -12.672935 -18.561958 7.665603 -17.630587 -35.375267 50.706776 52.344620 -38.465763 111.144211 -9.279498 -10.120818 12.459971 9.930001 -20.224966 -34.843609 13.122060 -1.117119 84.007111 3.857255 -0.548852 38.213326 2.993336 -5.045378 -34.836033 -13.867841 0.384974 84.006477 -3.903561 0.610764 38.761944 -2.771963 4.107804 
-22.002388 24.126011 16.979471 -90.001877 -0.011127 0.011128 0.146127 -0.480054 -0.696083 19.755430 -0.636630 -1.369288 -15.347970 0.000000 0.000000 -13.242370 0.000000 0.000000 -8.011725 17.382090 -35.132740 -50.663788 -57.567368 -42.570866 -111.320900 8.961135 -10.055513 -20.893127 -12.894904 -18.411638 7.966396 -17.462616 -35.157684 50.605995 52.458862 -38.956703 111.144211 -9.279498 -10.120818 12.664231 10.158616 -20.088854 -34.757660 12.599521 -1.647223 84.007111 3.857255 -0.548852 38.405834 3.162981 -5.796441 -34.752224 -13.563854 0.683940 84.006477 -3.903561 0.610764 38.945549 -2.872203 4.543828 
-22.002388 24.158716 16.974798 -90.001877 -0.011127 0.011128 -0.131561 -0.480005 -0.696104 19.755430 -0.636630 -1.369288 -15.681399 0.000000 0.000000 -12.297360 0.000000 0.000000 -8.319903 17.198345 -34.910690 -50.567780 -57.956875 -42.722439 -111.320900 8.961136 -10.055514 -21.118219 -13.116316 -18.260284 8.266269 -17.293537 -34.941204 50.503361 52.572609 -39.449318 111.144211 -9.279498 -10.120818 12.869206 10.386768 -19.951803 -34.666904 12.077551 -2.177309 84.007111 3.857255 -0.548853 38.600674 3.330167 -6.548548 -34.666866 -13.260242 0.983030 84.006477 -3.903561 0.610764 39.129978 -2.971063 4.980289 
-22.002388 24.191423 16.970127 -90.001869 -0.011127 0.011128 -0.409263 -0.479956 -0.696125 19.755430 -0.636630 -1.369288 -16.014843 0.000000 0.000000 -11.351837 0.000000 0.000000 -8.627056 17.013453 -34.689880 -50.468765 -58.346291 -42.876934 -111.320900 8.961136 -10.055514 -21.344131 -13.337159 -18.107889 8.565223 -17.123375 -34.725838 50.398815 52.685806 -39.943604 111.144211 -9.279498 -10.120818 13.074898 10.614451 -19.813818 -34.571362 11.556236 -2.707417 84.007111 3.857255 -0.548852 38.797806 3.494846 -7.301633 -34.579983 -12.957035 1.282252 84.006477 -3.903561 0.610764 39.315193 -3.068529 5.417163 
-22.002388 24.224131 16.965454 -90.001877 -0.011127 0.011128 -0.686974 -0.479906 -0.696146 19.755430 -0.636630 -1.369288 -16.348307 0.000000 0.000000 -10.405929 0.000000 0.000000 -8.933178 16.827419 -34.470310 -50.366608 -58.735584 -43.034458 -111.320900 8.961136 -10.055514 -21.570858 -13.557423 -17.954449 8.863247 -16.952131 -34.511585 50.292366 52.798443 -40.439533 111.144211 -9.279498 -10.120818 13.281317 10.841655 -19.674887 -34.471054 11.035670 -3.237589 84.007111 3.857255 -0.548852 38.997196 3.656968 -8.055630 -34.491562 -12.654241 1.581612 84.006477 -3.903561 0.610764 39.501186 -3.164592 5.854437 
-22.002388 24.256838 16.960781 -90.001877 -0.011127 0.011128 -0.964691 -0.479857 -0.696168 19.755430 -0.636630 -1.369288 -16.681784 0.000000 0.000000 -9.459763 0.000000 0.000000 -9.238266 16.640259 -34.251984 -50.261196 -59.124756 -43.195141 -111.320900 8.961136 -10.055513 -21.798420 -13.777103 -17.799963 9.160343 -16.779818 -34.298447 50.184048 52.910561 -40.937153 111.144211 -9.279498 -10.120818 13.488457 11.068371 -19.535009 -34.366005 10.515945 -3.767866 84.007111 3.857255 -0.548852 39.198765 3.816486 -8.810464 -34.401634 -12.351890 1.881118 84.006477 -3.903561 0.610764 39.687927 -3.259238 6.292089 
-22.002388 24.289545 16.956108 -90.001877 -0.011127 0.011128 -1.242412 -0.479808 -0.696190 19.755430 -0.636630 -1.369288 -17.015263 0.000000 0.000000 -8.513467 0.000000 0.000000 -9.542321 16.451992 -34.034920 -50.152428 -59.513767 -43.359081 -111.320900 8.961137 -10.055514 -22.026810 -13.996190 -17.644438 9.456507 -16.606449 -34.086441 50.073799 53.022068 -41.436398 111.144211 -9.279498 -10.120818 13.696325 11.294591 -19.394190 -34.256241 9.997152 -4.298289 84.007111 3.857255 -0.548852 39.402481 3.973353 -9.566071 -34.310184 -12.049986 2.180778 84.006477 -3.903561 0.610764 39.875427 -3.352463 6.730110 
-22.002388 24.322252 16.951437 -90.001877 -0.011127 0.011128 -1.520133 -0.479759 -0.696212 19.755430 -0.636630 -1.369288 -17.348745 0.000000 0.000000 -7.567171 0.000000 0.000000 -9.845334 16.262617 -33.819092 -50.040154 -59.902626 -43.526413 -111.320900 8.961136 -10.055514 -22.256029 -14.214670 -17.487860 9.751729 -16.432030 -33.875557 49.961685 53.133022 -41.937305 111.144211 -9.279498 -10.120818 13.904933 11.520312 -19.252422 -34.141777 9.479381 -4.828895 84.007111 3.857255 -0.548852 39.608299 4.127526 -10.322377 -34.217228 -11.748558 2.480597 84.006477 -3.903561 0.610764 40.063641 -3.444252 7.168472 
-22.002388 24.354959 16.946764 -90.001884 -0.011127 0.011128 -1.797850 -0.479710 -0.696234 19.755430 -0.636630 -1.369288 -17.682219 0.000000 0.000000 -6.621003 0.000000 0.000000 -10.147306 16.072159 -33.604527 -49.924252 -60.291290 -43.697254 -111.320915 8.961137 -10.055514 -22.486082 -14.432536 -17.330229 10.046015 -16.256580 -33.665806 49.847633 53.243355 -42.439850 111.144211 -9.279498 -10.120818 14.114271 11.745516 -19.109699 -34.022652 8.962725 -5.359724 84.007111 3.857255 -0.548853 39.816158 4.278960 -11.079311 -34.122765 -11.447618 2.780582 84.006477 -3.903561 0.610764 40.252571 -3.534597 7.607162 
